<?xml version="1.0" encoding="UTF-8"?>
<!DOCTYPE svg PUBLIC "-//W3C//DTD SVG 1.1//EN" "http://www.w3.org/Graphics/SVG/1.1/DTD/svg11.dtd">
<svg xmlns="http://www.w3.org/2000/svg" version="1.1" width="500px" height="500px" style="shape-rendering:geometricPrecision; text-rendering:geometricPrecision; image-rendering:optimizeQuality; fill-rule:evenodd; clip-rule:evenodd" xmlns:xlink="http://www.w3.org/1999/xlink">
<g><path style="opacity:1" fill="#0388d0" d="M 45.5,45.5 C 181.5,45.5 317.5,45.5 453.5,45.5C 453.5,181.5 453.5,317.5 453.5,453.5C 317.5,453.5 181.5,453.5 45.5,453.5C 45.5,317.5 45.5,181.5 45.5,45.5 Z"/></g>
<g><path style="opacity:1" fill="#fcc92a" d="M 351.5,239.5 C 375.328,238.589 397.328,244.422 417.5,257C 418.357,257.689 419.023,258.522 419.5,259.5C 414.92,268.328 410.087,276.995 405,285.5C 386.919,271.938 366.752,267.105 344.5,271C 334.233,275.098 330.4,282.598 333,293.5C 336.268,299.901 341.435,304.067 348.5,306C 361.216,309.542 373.882,313.209 386.5,317C 424.985,329.754 435.485,354.587 418,391.5C 409.654,401.426 399.154,407.926 386.5,411C 354.466,416.993 324.466,411.66 296.5,395C 294.415,393.959 292.748,392.459 291.5,390.5C 296.262,381.304 301.262,372.304 306.5,363.5C 327.28,379.372 350.614,385.539 376.5,382C 387.942,379.295 392.442,372.128 390,360.5C 386.147,354.306 380.647,350.14 373.5,348C 354.728,342.854 336.395,336.521 318.5,329C 301.304,317.781 294.804,301.947 299,281.5C 302.792,266.749 311.292,255.582 324.5,248C 333.39,244.369 342.39,241.536 351.5,239.5 Z"/></g>
<g><path style="opacity:1" fill="#fdc929" d="M 154.5,241.5 C 181.835,241.333 209.169,241.5 236.5,242C 258.201,248.033 272.368,261.867 279,283.5C 283.935,308.367 276.768,328.867 257.5,345C 250.038,350.376 241.705,353.376 232.5,354C 217.504,354.5 202.504,354.667 187.5,354.5C 187.5,373.5 187.5,392.5 187.5,411.5C 176.5,411.5 165.5,411.5 154.5,411.5C 154.5,354.833 154.5,298.167 154.5,241.5 Z"/></g>
<g><path style="opacity:1" fill="#0888d0" d="M 187.5,270.5 C 202.572,270.049 217.572,270.549 232.5,272C 242.452,277.301 247.452,285.634 247.5,297C 247.67,310.012 242.003,319.345 230.5,325C 216.171,325.5 201.837,325.667 187.5,325.5C 187.5,307.167 187.5,288.833 187.5,270.5 Z"/></g>
</svg>
